<svg width="128" height="128" xmlns="http://www.w3.org/2000/svg" fill="none">

 <g>
  <title>Layer 1</title>
  <g stroke="null" id="svg_4">
   <path stroke="null" id="svg_1" fill="#FFA116" d="m85.73603,93.49904c2.64306,-2.66069 6.92166,-2.65379 9.55629,0.01563c2.63479,2.66928 2.62789,6.99018 -0.01533,9.65087l-11.7369,11.81508c-10.82824,10.89982 -28.48556,11.05924 -39.49636,0.36711c-0.06361,-0.06147 -4.96653,-4.90798 -21.14068,-20.89696c-10.76033,-10.63664 -11.83225,-27.6566 -1.7065,-38.58647l18.87929,-20.37932c10.04956,-10.84878 28.57461,-12.03458 40.06488,-2.66682l17.14688,13.9802c2.9038,2.36746 3.35736,6.66399 1.01305,9.59645c-2.34431,2.93262 -6.59869,3.39063 -9.50249,1.02317l-17.14688,-13.98005c-6.00917,-4.89909 -16.52087,-4.22633 -21.7063,1.37127l-18.87945,20.37978c-4.92944,5.32077 -4.38957,13.89268 1.29126,19.50821c11.877,11.74104 21.03047,20.7892 21.04105,20.79947c5.72452,5.55836 14.98053,5.47559 20.60112,-0.18256l11.73706,-11.81508z" clip-rule="evenodd" fill-rule="evenodd"/>
   <path stroke="null" id="svg_2" fill="#B3B3B3" d="m57.2238,81.67553c-3.73199,0 -6.75749,-3.0554 -6.75749,-6.82433c0,-3.76893 3.02551,-6.82417 6.75749,-6.82417l49.83578,0c3.73214,0 6.75749,3.05524 6.75749,6.82417c0,3.76893 -3.02535,6.82433 -6.75749,6.82433l-49.83578,0z" clip-rule="evenodd" fill-rule="evenodd"/>
   <path stroke="null" id="svg_3" fill="black" d="m66.55692,6.89965c2.54971,-2.7522 6.82586,-2.89598 9.55108,-0.32113c2.72538,2.57485 2.86778,6.8933 0.31806,9.64566l-45.36036,48.96497c-4.92959,5.32046 -4.38973,13.89222 1.2908,19.50791l20.948,20.70873c2.66698,2.63647 2.71265,6.95707 0.10193,9.65041c-2.61057,2.69334 -6.88886,2.73948 -9.55583,0.10301l-20.94816,-20.70873c-10.75957,-10.6371 -11.83163,-27.65706 -1.70543,-38.58616l45.3599,-48.96467z" clip-rule="evenodd" fill-rule="evenodd"/>
  </g>
 </g>
</svg>