<svg width="300" height="300" xmlns="http://www.w3.org/2000/svg">
 <g>
  <title>Layer 1</title>
  <path stroke="null" d="m150.00283,63.51239c-38.67448,0 -62.83963,19.22073 -72.51252,57.66219c14.50364,-19.22073 31.42266,-26.42709 50.75706,-21.62474c11.03118,2.73932 18.91951,10.69587 27.6433,19.50489c14.21947,14.34451 30.67815,30.94526 66.61898,30.94526c38.66879,0 62.83963,-19.22073 72.50682,-57.65651c-14.49795,19.22073 -31.41697,26.42709 -50.75137,21.61906c-11.03686,-2.73932 -18.9252,-10.69587 -27.64898,-19.49921c-14.21947,-14.35587 -30.67247,-30.95095 -66.6133,-30.95095zm-72.51252,86.48762c-38.66879,0 -62.83963,19.22073 -72.50682,57.66219c14.50364,-19.22073 31.42266,-26.42709 50.75137,-21.62474c11.03686,2.73932 18.9252,10.69587 27.64898,19.50489c14.21947,14.34451 30.67247,30.94526 66.61898,30.94526c38.66879,0 62.83963,-19.21504 72.50682,-57.65651c-14.50364,19.22073 -31.42266,26.42709 -50.75706,21.62474c-11.03118,-2.745 -18.91951,-10.70155 -27.6433,-19.50489c-14.21947,-14.34451 -30.67815,-30.95095 -66.61898,-30.95095l0.00001,0z" fill="#38bdf8" id="svg_1"/>
 </g>

</svg>