<svg class="icon" viewBox="0 0 1024 1024" xmlns="http://www.w3.org/2000/svg" width="200" height="200"><path d="M278.042 353.45c29.39 37.124 75.021 60.326 125.293 60.326 88.943 0 160.87-71.927 160.87-160.87 0-51.818-23.975-97.45-61.873-126.84-25.522-31.71-63.42-54.139-107.504-58.779-88.17-9.281-167.058 54.139-177.112 142.308-5.414 57.233 18.562 110.598 60.326 143.855zm571.553 4.64c-27.843-47.178-79.661-78.888-138.44-78.888-88.944 0-160.871 71.928-160.871 160.87 0 44.859 18.562 85.85 48.725 115.24 27.843 46.404 78.888 78.114 137.668 78.114 88.942 0 160.096-71.928 160.096-160.097.774-45.631-17.788-85.849-47.178-115.238zM367.758 525.149c-38.67 0-74.247 14.695-102.09 37.897-56.46 22.43-95.904 77.342-95.904 141.535 0 84.302 68.06 152.363 152.363 152.363 29.39 0 57.233-8.508 80.435-23.203 69.607-15.468 121.426-78.115 121.426-152.362 0-86.623-69.607-156.23-156.23-156.23z" fill="#1ca538"/><path d="M719.662 411.456c-11.602-51.045-40.991-99.77-131.48-80.435-35.578 7.734-61.1 37.124-77.342 74.248-10.828-34.03-31.71-69.607-55.686-92.81-10.054-15.468-17.015-33.257-15.468-50.272 1.547-21.655 10.828-37.897 33.257-29.39 22.429 8.508 0 37.124-.774 37.898 1.547-.774 27.843-17.789 10.828-39.444s-37.124-13.922-54.139 10.828c-7.734 11.6-8.508 30.163-5.414 48.725-3.867-1.547-8.507-3.094-12.375-3.867-51.045-9.281-84.302 7.734-77.34 54.139 6.186 46.404 58.779 34.03 61.872 33.256-1.547.774-63.42-6.187-47.178-43.31 14.695-37.125 45.631-30.164 74.248-6.188 40.217 34.03 51.818 102.09 51.818 150.042 0 0 10.828 78.888 20.883 112.145l13.148 29.39c-23.976-18.562-52.593-28.616-85.85-23.203-51.818 6.188-122.199 70.381-88.168 126.067 31.71 54.139 108.277 23.976 98.223-36.35 0 0-.773 53.365-50.272 42.537-49.498-10.828-40.217-66.513-2.32-94.356 34.03-27.843 89.716 6.187 122.2 27.843 102.09 74.247 37.897 242.078-23.977 322.513L640 974.502s-5.414-102.091-3.867-139.988c1.547-37.898-12.375-82.756-18.562-126.84-7.734-41.765-31.71-75.795-47.952-114.466-17.788-41.764-46.404-84.302-41.764-132.253 3.867-46.405 37.897-108.278 88.17-105.958 47.95 2.32 116.011 60.326 71.927 112.145-54.14 61.873-118.333-65.74-31.71-54.139-61.873-21.656-78.115 84.302-10.055 98.224 59.553 12.374 85.076-48.725 73.475-99.77z" fill="#65320b"/></svg>