<svg xmlns="http://www.w3.org/2000/svg" viewBox="0 0 256 256"><path fill="#36ad6a" d="M143.58 86.06q.2 1.72.82.1 7.79-20.47 12.57-41.85.02-.06.08-.03l.25.13q.07.04.06.12-1.27 20.02-8.4 38.75a.32.32 0 0 0 .47.39c8.82-5.39 18.39-6.15 23.23-16.56 5.86-12.6.64-30.13-1.52-43.03q-.34-2.05-.04-3.48.13-.64.73-.39c58.61 24.06 87.59 90.22 65.08 149.34-16.95 44.49-59.31 74.23-106.61 75.04q-1 .02-.94-.98c2.35-37.48 26.67-68.16 25.83-106.77-.8-36.87-25.71-76.35-66.87-74.54q-.53.02-.95-.29c-5.02-3.66-10.69-8.83-16.24-10.49-16.9-5.06-33.69 12.22-45.26 21.97a.4.4 0 0 1-.6-.51c2.79-4.75 5.75-9.78 8.99-14.05 31.58-41.55 82.03-56.56 131.56-41.15q1.9.59.01 1.19c-17.89 5.72-31.94 22.59-27.58 42.31 1.84 8.33 4.36 16.3 5.33 24.78zm61.39 62.72q-19.61 17.7-43.74 28.46a.39.39 0 0 0 .16.74c6.04-.06 13.47 4.85 18.91 6.21q16.57 4.15 29.36-8.34 12.1-11.81 20.85-26.22c3.2-5.28 5.8-8.62 10.71-11.18a.4.4 0 0 0 .03-.69c-20.61-12.67-48.94-14.82-65.84 4.73-8.32 9.63-13.02 22.72-21.51 32.86a.29.29 0 0 0 .34.45q26.31-11.7 50.51-27.31a.18.18 0 0 1 .22.29z"/><path fill="#36ad6a" d="M93.93 65.84q-18.99 2.63-35.67 7.46-5.24 1.52-8.06 2.23-1.09.27-.08-.22C62.53 69.3 81.08 62.23 94.96 63.5c39.62 3.64 60.14 47.23 55.95 82.45-2.26 18.96-12.94 40.16-20.47 58.63q-7.73 18.98-9.44 39.47a.52.52 0 0 1-.56.47c-81.78-6.77-132.35-89.64-98.18-165.4a.53.53 0 0 1 .85-.16c12.27 11.83 31.49 17.5 46.62 8.34 7.38-4.48 16.16-14.57 24.33-21.17q.47-.38-.13-.29zm16.7 64.29q10.11 26.54 24 51.31a.2.2 0 0 0 .37-.11q-.27-10.81 1.31-21.55c.77-5.22 1.43-11.77 1.23-16.63-1.1-26.17-26.11-42.33-50.19-44.02q-.63-.04-.36.52c1.16 2.46 1.97 4.39 2 7.17.23 20.8-5.77 53.23 16.91 64.6 5.51 2.77 14.7 4.26 21.8 7.17a.29.29 0 0 0 .36-.41q-12.71-22.53-17.89-47.92a.24.24 0 0 1 .46-.13z"/></svg>
